<svg xmlns="http://www.w3.org/2000/svg" xmlns:xlink="http://www.w3.org/1999/xlink" width="576" zoomAndPan="magnify" viewBox="0 0 432 269.999989" height="360" preserveAspectRatio="xMidYMid meet" version="1.0"><defs><g/><clipPath id="3d1b8aed26"><path d="M 197.859375 56.40625 L 234.28125 56.40625 L 234.28125 92.550781 L 197.859375 92.550781 Z M 197.859375 56.40625 " clip-rule="nonzero"/></clipPath><clipPath id="0e33727a72"><path d="M 216 56.40625 C 205.980469 56.40625 197.859375 64.496094 197.859375 74.476562 C 197.859375 84.457031 205.980469 92.550781 216 92.550781 C 226.019531 92.550781 234.140625 84.457031 234.140625 74.476562 C 234.140625 64.496094 226.019531 56.40625 216 56.40625 Z M 216 56.40625 " clip-rule="nonzero"/></clipPath></defs><g clip-path="url(#3d1b8aed26)"><g clip-path="url(#0e33727a72)"><path fill="#c49cff" d="M 197.859375 56.40625 L 234.140625 56.40625 L 234.140625 92.550781 L 197.859375 92.550781 Z M 197.859375 56.40625 " fill-opacity="1" fill-rule="nonzero"/></g></g><g fill="#c49cff" fill-opacity="1"><g transform="translate(143.224552, 193.467869)"><g><path d="M 19.875 0.8125 C 18.257812 0.8125 16.425781 0.753906 14.375 0.640625 C 12.332031 0.535156 10.070312 0.320312 7.59375 0 C 6.082031 -0.21875 4.867188 -0.78125 3.953125 -1.6875 C 3.035156 -2.601562 2.578125 -3.765625 2.578125 -5.171875 C 2.578125 -10.335938 3.816406 -15.691406 6.296875 -21.234375 C 8.773438 -26.785156 12.140625 -32.09375 16.390625 -37.15625 C 20.648438 -42.21875 25.5 -46.660156 30.9375 -50.484375 C 36.375 -54.304688 42 -57.023438 47.8125 -58.640625 C 49.207031 -59.066406 49.929688 -59.84375 49.984375 -60.96875 C 50.046875 -62.101562 49.375 -62.882812 47.96875 -63.3125 C 42.476562 -65.039062 37.335938 -67.546875 32.546875 -70.828125 C 27.753906 -74.117188 23.550781 -77.863281 19.9375 -82.0625 C 16.332031 -86.257812 13.476562 -90.617188 11.375 -95.140625 C 9.28125 -99.660156 8.234375 -103.914062 8.234375 -107.90625 C 8.234375 -110.8125 9.847656 -112.535156 13.078125 -113.078125 C 15.554688 -113.503906 17.84375 -113.742188 19.9375 -113.796875 C 22.039062 -113.847656 23.898438 -113.875 25.515625 -113.875 C 27.128906 -113.875 29.148438 -113.820312 31.578125 -113.71875 C 34.003906 -113.613281 36.347656 -113.398438 38.609375 -113.078125 C 40.972656 -112.753906 42.425781 -111.515625 42.96875 -109.359375 C 44.800781 -102.578125 47.273438 -96.359375 50.390625 -90.703125 C 53.515625 -85.046875 57.039062 -80.519531 60.96875 -77.125 C 64.90625 -73.738281 68.8125 -72.046875 72.6875 -72.046875 C 76.675781 -72.046875 80.6875 -73.820312 84.71875 -77.375 C 88.757812 -80.925781 92.367188 -85.53125 95.546875 -91.1875 C 98.722656 -96.84375 101.007812 -102.898438 102.40625 -109.359375 C 102.726562 -111.515625 104.128906 -112.753906 106.609375 -113.078125 C 108.984375 -113.503906 111.40625 -113.742188 113.875 -113.796875 C 116.351562 -113.847656 118.347656 -113.875 119.859375 -113.875 C 121.472656 -113.875 123.382812 -113.820312 125.59375 -113.71875 C 127.800781 -113.613281 130.085938 -113.398438 132.453125 -113.078125 C 133.859375 -112.960938 135.015625 -112.421875 135.921875 -111.453125 C 136.835938 -110.484375 137.296875 -109.300781 137.296875 -107.90625 C 137.191406 -103.8125 136.0625 -99.503906 133.90625 -94.984375 C 131.75 -90.460938 128.8125 -86.097656 125.09375 -81.890625 C 121.382812 -77.691406 117.160156 -73.894531 112.421875 -70.5 C 107.679688 -67.113281 102.726562 -64.503906 97.5625 -62.671875 C 96.269531 -62.242188 95.625 -61.515625 95.625 -60.484375 C 95.625 -59.460938 96.269531 -58.6875 97.5625 -58.15625 C 103.488281 -55.894531 109.144531 -52.820312 114.53125 -48.9375 C 119.914062 -45.0625 124.734375 -40.703125 128.984375 -35.859375 C 133.234375 -31.015625 136.625 -25.953125 139.15625 -20.671875 C 141.6875 -15.398438 142.953125 -10.234375 142.953125 -5.171875 C 142.953125 -3.765625 142.46875 -2.601562 141.5 -1.6875 C 140.53125 -0.78125 139.347656 -0.21875 137.953125 0 C 135.578125 0.320312 133.3125 0.535156 131.15625 0.640625 C 129.007812 0.753906 127.179688 0.8125 125.671875 0.8125 C 123.410156 0.8125 121.117188 0.78125 118.796875 0.71875 C 116.484375 0.664062 114.144531 0.425781 111.78125 0 C 109.300781 -0.320312 107.738281 -1.5625 107.09375 -3.71875 C 105.375 -9.207031 103.164062 -14.613281 100.46875 -19.9375 C 97.78125 -25.269531 94.847656 -30.117188 91.671875 -34.484375 C 88.492188 -38.847656 85.257812 -42.347656 81.96875 -44.984375 C 78.6875 -47.617188 75.59375 -48.9375 72.6875 -48.9375 C 69.675781 -48.9375 66.445312 -47.59375 63 -44.90625 C 59.550781 -42.21875 56.179688 -38.664062 52.890625 -34.25 C 49.609375 -29.832031 46.675781 -24.984375 44.09375 -19.703125 C 41.507812 -14.429688 39.570312 -9.15625 38.28125 -3.875 C 37.851562 -1.613281 36.347656 -0.320312 33.765625 0 C 31.390625 0.425781 29.046875 0.664062 26.734375 0.71875 C 24.421875 0.78125 22.132812 0.8125 19.875 0.8125 Z M 19.875 0.8125 "/></g></g></g><g fill="#ffffff" fill-opacity="1"><g transform="translate(151.259341, 187.124981)"><g><path d="M 17.671875 0.71875 C 16.234375 0.71875 14.601562 0.671875 12.78125 0.578125 C 10.96875 0.484375 8.957031 0.289062 6.75 0 C 5.414062 -0.1875 4.335938 -0.6875 3.515625 -1.5 C 2.703125 -2.320312 2.296875 -3.351562 2.296875 -4.59375 C 2.296875 -9.195312 3.394531 -13.960938 5.59375 -18.890625 C 7.800781 -23.828125 10.796875 -28.546875 14.578125 -33.046875 C 18.367188 -37.554688 22.679688 -41.507812 27.515625 -44.90625 C 32.359375 -48.3125 37.363281 -50.734375 42.53125 -52.171875 C 43.78125 -52.546875 44.425781 -53.234375 44.46875 -54.234375 C 44.519531 -55.242188 43.925781 -55.941406 42.6875 -56.328125 C 37.789062 -57.859375 33.210938 -60.082031 28.953125 -63 C 24.691406 -65.925781 20.957031 -69.257812 17.75 -73 C 14.539062 -76.738281 12 -80.617188 10.125 -84.640625 C 8.257812 -88.660156 7.328125 -92.445312 7.328125 -96 C 7.328125 -98.582031 8.765625 -100.113281 11.640625 -100.59375 C 13.835938 -100.976562 15.867188 -101.191406 17.734375 -101.234375 C 19.609375 -101.285156 21.265625 -101.3125 22.703125 -101.3125 C 24.140625 -101.3125 25.9375 -101.257812 28.09375 -101.15625 C 30.25 -101.0625 32.332031 -100.875 34.34375 -100.59375 C 36.445312 -100.300781 37.738281 -99.195312 38.21875 -97.28125 C 39.851562 -91.25 42.054688 -85.71875 44.828125 -80.6875 C 47.609375 -75.65625 50.75 -71.628906 54.25 -68.609375 C 57.75 -65.597656 61.222656 -64.09375 64.671875 -64.09375 C 68.210938 -64.09375 71.78125 -65.671875 75.375 -68.828125 C 78.96875 -71.992188 82.175781 -76.09375 85 -81.125 C 87.820312 -86.15625 89.859375 -91.539062 91.109375 -97.28125 C 91.390625 -99.195312 92.632812 -100.300781 94.84375 -100.59375 C 96.945312 -100.976562 99.097656 -101.191406 101.296875 -101.234375 C 103.503906 -101.285156 105.28125 -101.3125 106.625 -101.3125 C 108.0625 -101.3125 109.757812 -101.257812 111.71875 -101.15625 C 113.6875 -101.0625 115.726562 -100.875 117.84375 -100.59375 C 119.082031 -100.5 120.109375 -100.019531 120.921875 -99.15625 C 121.734375 -98.289062 122.140625 -97.238281 122.140625 -96 C 122.046875 -92.351562 121.039062 -88.519531 119.125 -84.5 C 117.207031 -80.476562 114.597656 -76.597656 111.296875 -72.859375 C 107.992188 -69.117188 104.234375 -65.738281 100.015625 -62.71875 C 95.796875 -59.707031 91.390625 -57.382812 86.796875 -55.75 C 85.648438 -55.375 85.078125 -54.726562 85.078125 -53.8125 C 85.078125 -52.90625 85.648438 -52.210938 86.796875 -51.734375 C 92.066406 -49.722656 97.097656 -46.992188 101.890625 -43.546875 C 106.679688 -40.097656 110.96875 -36.21875 114.75 -31.90625 C 118.53125 -27.59375 121.546875 -23.085938 123.796875 -18.390625 C 126.046875 -13.703125 127.171875 -9.101562 127.171875 -4.59375 C 127.171875 -3.351562 126.738281 -2.320312 125.875 -1.5 C 125.019531 -0.6875 123.96875 -0.1875 122.71875 0 C 120.613281 0.289062 118.601562 0.484375 116.6875 0.578125 C 114.769531 0.671875 113.140625 0.71875 111.796875 0.71875 C 109.785156 0.71875 107.75 0.691406 105.6875 0.640625 C 103.632812 0.597656 101.550781 0.382812 99.4375 0 C 97.238281 -0.289062 95.851562 -1.394531 95.28125 -3.3125 C 93.738281 -8.195312 91.769531 -13.007812 89.375 -17.75 C 86.988281 -22.488281 84.378906 -26.796875 81.546875 -30.671875 C 78.722656 -34.554688 75.847656 -37.671875 72.921875 -40.015625 C 70.003906 -42.367188 67.253906 -43.546875 64.671875 -43.546875 C 61.984375 -43.546875 59.109375 -42.347656 56.046875 -39.953125 C 52.984375 -37.554688 49.988281 -34.394531 47.0625 -30.46875 C 44.144531 -26.539062 41.535156 -22.226562 39.234375 -17.53125 C 36.929688 -12.832031 35.207031 -8.140625 34.0625 -3.453125 C 33.675781 -1.441406 32.332031 -0.289062 30.03125 0 C 27.925781 0.382812 25.84375 0.597656 23.78125 0.640625 C 21.71875 0.691406 19.679688 0.71875 17.671875 0.71875 Z M 17.671875 0.71875 "/></g></g></g></svg>