<svg width="132" height="42" viewBox="0 0 132 42" fill="none" xmlns="http://www.w3.org/2000/svg">
<path d="M13.9097 29.8021C10.3264 29.8021 7.566 29.0677 5.63892 27.5937C3.72225 26.125 2.76392 24.0312 2.76392 21.3229C2.76392 19.5469 2.81079 17.8333 2.90975 16.1771C3.01912 14.5104 3.13892 13.0677 3.26392 11.8437C3.316 11.401 3.58162 11.1354 4.05558 11.0521C4.23267 11.026 4.46183 11.0052 4.74308 10.9896C5.01912 10.9635 5.29517 10.9479 5.57642 10.9479C5.85246 10.9375 6.04517 10.9271 6.15975 10.9271C6.28475 10.9271 6.48267 10.9375 6.76392 10.9479C7.05558 10.9479 7.34725 10.9635 7.63892 10.9896C7.941 11.0052 8.17017 11.026 8.32642 11.0521C8.53475 11.0937 8.72746 11.1979 8.90975 11.3646C9.10246 11.5312 9.16496 11.776 9.09725 12.0937C8.83162 13.375 8.60767 14.8021 8.43058 16.3854C8.26392 17.9687 8.21183 19.5521 8.28475 21.1354C8.31079 22.0521 8.54517 22.8958 8.99308 23.6562C9.43579 24.4062 10.066 25.0104 10.8889 25.4687C11.7222 25.9166 12.7275 26.1354 13.9097 26.1354C15.1025 26.1354 16.1077 25.901 16.9306 25.4271C17.7639 24.9583 18.3941 24.3385 18.8264 23.5729C19.2691 22.8125 19.5139 22 19.5556 21.1354C19.6233 19.5521 19.5608 17.9844 19.3681 16.4271C19.1858 14.875 18.9618 13.4271 18.7014 12.0937C18.6285 11.776 18.6858 11.5312 18.8681 11.3646C19.0608 11.1979 19.2535 11.0937 19.4514 11.0521C19.6181 11.026 19.8472 11.0052 20.1389 10.9896C20.441 10.9635 20.7327 10.9479 21.0139 10.9479C21.3056 10.9375 21.5139 10.9271 21.6389 10.9271C21.7743 10.9271 21.9775 10.9375 22.2431 10.9479C22.5035 10.9479 22.7847 10.9635 23.0764 10.9896C23.3681 11.0052 23.5972 11.026 23.7639 11.0521C24.2222 11.1354 24.4775 11.401 24.5347 11.8437C24.7118 13.0677 24.8368 14.5104 24.9097 16.1771C24.9931 17.8333 25.0347 19.5469 25.0347 21.3229C25.0347 24.0312 24.066 26.125 22.1389 27.5937C20.2222 29.0677 17.4775 29.8021 13.9097 29.8021Z" fill="black"/>
<path d="M30.351 29.6562C30.0854 29.6562 29.7885 29.6458 29.4552 29.6354C29.1219 29.6198 28.7521 29.5833 28.351 29.5312C28.101 29.4896 27.8979 29.401 27.7469 29.2604C27.5906 29.1094 27.5177 28.9166 27.5177 28.6771C27.5177 27.8437 27.7156 26.9791 28.1219 26.0729C28.5385 25.1562 29.0906 24.2916 29.7885 23.4687C30.4812 22.6354 31.2729 21.9062 32.1635 21.2812C33.049 20.6562 33.9656 20.2135 34.9135 19.9479C35.1479 19.8802 35.2677 19.7552 35.2677 19.5729C35.2781 19.3802 35.1687 19.25 34.9344 19.1771C34.0437 18.901 33.2052 18.5 32.4135 17.9687C31.6323 17.4271 30.9448 16.8177 30.351 16.1354C29.7677 15.4427 29.299 14.7291 28.9552 13.9896C28.6219 13.2552 28.4552 12.5625 28.4552 11.9062C28.4552 11.4219 28.7156 11.1354 29.2469 11.0521C29.6479 10.9844 30.0177 10.9479 30.351 10.9479C30.6948 10.9375 31.0021 10.9271 31.2677 10.9271C31.5281 10.9271 31.8562 10.9375 32.2469 10.9479C32.6479 10.9635 33.0385 11 33.4135 11.0521C33.799 11.1094 34.0385 11.3125 34.1219 11.6562C34.424 12.7708 34.8302 13.7916 35.3302 14.7187C35.8406 15.6354 36.4187 16.375 37.0594 16.9271C37.7104 17.4844 38.351 17.7604 38.976 17.7604C39.6271 17.7604 40.2781 17.4687 40.9344 16.8854C41.601 16.3021 42.1896 15.5521 42.7052 14.6354C43.2312 13.7083 43.6062 12.7135 43.8302 11.6562C43.8823 11.3125 44.1115 11.1094 44.5177 11.0521C44.9031 10.9844 45.299 10.9479 45.7052 10.9479C46.1062 10.9375 46.4344 10.9271 46.6844 10.9271C46.9448 10.9271 47.2573 10.9375 47.6219 10.9479C47.9812 10.9635 48.3562 11 48.7469 11.0521C48.9656 11.0677 49.1531 11.1562 49.3094 11.3229C49.4604 11.4791 49.5385 11.6719 49.5385 11.9062C49.5229 12.5729 49.3354 13.276 48.976 14.0104C48.6271 14.75 48.1479 15.4635 47.5385 16.1562C46.9396 16.8385 46.2521 17.4583 45.476 18.0104C44.6948 18.5677 43.8823 18.9896 43.0385 19.2812C42.8302 19.3541 42.726 19.4791 42.726 19.6562C42.726 19.8229 42.8302 19.9479 43.0385 20.0312C44.0073 20.3958 44.9344 20.8958 45.8094 21.5312C46.6948 22.1719 47.4865 22.8854 48.1844 23.6771C48.8771 24.4687 49.424 25.2969 49.8302 26.1562C50.2469 27.0208 50.4552 27.8594 50.4552 28.6771C50.4552 28.9166 50.3719 29.1094 50.2052 29.2604C50.049 29.401 49.8615 29.4896 49.6427 29.5312C49.2521 29.5833 48.8771 29.6198 48.5177 29.6354C48.1687 29.6458 47.8771 29.6562 47.6427 29.6562C47.2677 29.6562 46.8927 29.6458 46.5177 29.6354C46.1427 29.6354 45.7573 29.5989 45.3719 29.5312C44.9656 29.4791 44.7104 29.276 44.601 28.9271C44.3198 28.026 43.9604 27.1458 43.5177 26.2812C43.0698 25.4062 42.5906 24.6146 42.0802 23.9062C41.5646 23.1875 41.0385 22.6094 40.4969 22.1771C39.9552 21.75 39.4448 21.5312 38.976 21.5312C38.4865 21.5312 37.9604 21.7552 37.3927 22.1979C36.8354 22.6302 36.2885 23.2083 35.7469 23.9271C35.2052 24.651 34.7156 25.4479 34.2885 26.3229C33.8719 27.1875 33.5594 28.0469 33.351 28.9062C33.2781 29.2708 33.0385 29.4791 32.6219 29.5312C32.2312 29.5989 31.8406 29.6354 31.4552 29.6354C31.0802 29.6458 30.7104 29.6562 30.351 29.6562Z" fill="#C49CFF"/>
<path d="M64.5188 29.6563C64.0032 29.6563 63.3782 29.6459 62.6438 29.6354C61.9042 29.6354 61.1282 29.625 60.3105 29.6146C59.5032 29.6146 58.7167 29.6042 57.9563 29.5938C57.2063 29.5938 56.5448 29.5834 55.9771 29.5729C55.4042 29.5573 54.998 29.5417 54.748 29.5313C54.4823 29.5209 54.2584 29.4479 54.0813 29.3229C53.9146 29.1875 53.8313 28.9844 53.8313 28.7188C53.8417 27.5677 53.8625 26.2813 53.8938 24.8646C53.9355 23.4479 53.9823 21.9792 54.0396 20.4479C54.0917 18.9219 54.1646 17.4167 54.248 15.9271C54.3313 14.4427 54.425 13.0677 54.5396 11.8021C54.5813 11.5521 54.6855 11.375 54.8521 11.2604C55.0188 11.1354 55.2167 11.0677 55.4563 11.0521C55.675 11.0417 56.0448 11.0313 56.5605 11.0313C57.0709 11.0209 57.6855 11.0052 58.3938 10.9896C59.1021 10.9792 59.8313 10.9688 60.5813 10.9688C61.3417 10.9584 62.0709 10.9479 62.7688 10.9479C63.4615 10.9479 64.0605 10.9479 64.5605 10.9479C65.5188 10.9479 66.55 10.9479 67.6646 10.9479C68.774 10.9479 69.8521 10.9636 70.8938 10.9896C71.9355 11.0052 72.8313 11.0261 73.5813 11.0521C74.0813 11.0677 74.3573 11.3334 74.4146 11.8438C74.4667 12.25 74.5084 12.7709 74.5396 13.4063C74.5813 14.0313 74.6126 14.6563 74.6438 15.2813C74.6855 15.9063 74.7063 16.4167 74.7063 16.8021C74.7167 17.2084 74.5657 17.4479 74.248 17.5313C73.9407 17.6042 73.6542 17.4584 73.3938 17.0938C72.7271 16.1667 71.6907 15.5 70.2896 15.0938C68.899 14.6771 67.0448 14.4688 64.7271 14.4688C63.6542 14.4688 62.675 14.5417 61.7896 14.6771C60.899 14.8021 60.1907 15.0261 59.6646 15.3438C59.149 15.6511 58.8938 16.0886 58.8938 16.6563V16.8021C58.8938 17.9167 60.3313 18.4688 63.2063 18.4688C63.873 18.4688 64.6125 18.4584 65.4355 18.4271C66.2688 18.4011 67.0865 18.3646 67.8938 18.3229C68.6959 18.2813 69.399 18.2344 69.998 18.1771C70.248 18.1511 70.4615 18.2188 70.6438 18.3854C70.8365 18.5521 70.9355 18.7552 70.9355 18.9896V21.5104C70.9355 21.7917 70.8209 21.9792 70.6021 22.0729C70.3782 22.1563 70.123 22.1094 69.8313 21.9271C69.3417 21.7084 68.7532 21.5313 68.0605 21.4063C67.3625 21.2813 66.6334 21.1927 65.873 21.1354C65.1073 21.0834 64.3834 21.0521 63.7063 21.0521C62.873 21.0521 62.0813 21.1094 61.3313 21.2188C60.5813 21.3177 59.9771 21.5104 59.5188 21.8021C59.0709 22.0938 58.8521 22.5209 58.8521 23.0729V23.4063C58.8521 24.0625 59.175 24.5834 59.8313 24.9688C60.498 25.3594 61.3625 25.6302 62.4355 25.7813C63.5032 25.9375 64.6334 26.0104 65.8313 26.0104C67.1907 26.0104 68.3365 25.9427 69.2688 25.8021C70.2115 25.6511 71.0084 25.4219 71.6646 25.1146C72.3157 24.8125 72.8782 24.4167 73.3521 23.9271C73.8365 23.4427 74.2896 22.8646 74.7063 22.1979C74.899 21.8646 75.1646 21.7188 75.498 21.7604C75.8417 21.7917 76.0448 22.0052 76.1021 22.4063C76.1542 22.7552 76.2063 23.2188 76.248 23.8021C76.2896 24.3854 76.3365 25.0052 76.3938 25.6563C76.4459 26.3125 76.4876 26.9271 76.5188 27.5104C76.5605 28.0834 76.5865 28.5469 76.6021 28.9063C76.6438 29.3125 76.425 29.5209 75.9563 29.5313C75.3313 29.5729 74.524 29.599 73.5396 29.6146C72.55 29.625 71.498 29.6354 70.373 29.6354C69.2584 29.6459 68.1855 29.6563 67.1438 29.6563C66.1125 29.6563 65.2375 29.6563 64.5188 29.6563Z" fill="black"/>
<path d="M92.0647 29.7604C91.2574 29.7604 90.3564 29.7188 89.3564 29.6354C88.3564 29.5521 87.3251 29.4375 86.273 29.2813C85.2314 29.1146 84.2209 28.9427 83.2522 28.7604C82.2939 28.5677 81.4241 28.3646 80.648 28.1563C80.4657 28.1042 80.3199 27.9896 80.2105 27.8229C80.1116 27.6563 80.0647 27.4688 80.0647 27.2604C80.0647 26.5521 80.0647 25.8542 80.0647 25.1563C80.0751 24.4636 80.0907 23.7709 80.1064 23.0729C80.1324 22.6979 80.2939 22.4427 80.5855 22.3021C80.8876 22.1667 81.1532 22.2136 81.3772 22.4479C82.6793 23.6719 84.2522 24.5625 86.0855 25.1146C87.9293 25.6719 89.8876 25.9479 91.9605 25.9479C93.5959 25.9479 94.9032 25.7917 95.8772 25.4688C96.8459 25.1354 97.3355 24.6354 97.3355 23.9688C97.3355 23.5261 97.0959 23.1719 96.6272 22.9063C96.1532 22.6302 95.523 22.4063 94.7314 22.2396C93.9397 22.0729 93.0543 21.9271 92.0855 21.8021C91.1116 21.6667 90.0959 21.5209 89.0439 21.3646C87.9866 21.1979 86.9657 20.9896 85.9814 20.7396C85.0074 20.4896 84.1272 20.1719 83.3355 19.7813C82.5439 19.3802 81.9084 18.875 81.4397 18.2604C80.9814 17.6511 80.7522 16.8854 80.7522 15.9688C80.7522 15.0417 81.023 14.25 81.5647 13.5938C82.1064 12.9427 82.8616 12.4063 83.8355 11.9896C84.8199 11.5729 85.9657 11.2761 87.273 11.0938C88.5751 10.9167 89.9709 10.8229 91.4605 10.8229C92.4189 10.8229 93.4189 10.8802 94.4605 10.9896C95.5022 11.0886 96.5282 11.2396 97.5439 11.4479C98.5543 11.6563 99.4814 11.9167 100.315 12.2188C100.7 12.3594 100.898 12.6302 100.898 13.0313V16.4896C100.898 16.8386 100.752 17.1042 100.461 17.2813C100.179 17.4636 99.9189 17.4479 99.6689 17.2396C98.5959 16.4063 97.3564 15.7604 95.9397 15.3021C94.5334 14.8438 93.1272 14.6146 91.7105 14.6146C90.7939 14.6146 89.9084 14.6771 89.0647 14.8021C88.2314 14.9271 87.5491 15.125 87.023 15.3854C86.4918 15.6511 86.2314 16.0052 86.2314 16.4479C86.2314 16.8802 86.4657 17.2292 86.9397 17.4896C87.4241 17.7552 88.0647 17.9688 88.8564 18.1354C89.648 18.2917 90.5334 18.4271 91.523 18.5521C92.523 18.6771 93.5491 18.8177 94.6064 18.9688C95.6741 19.1094 96.7105 19.3021 97.7105 19.5521C98.7105 19.7917 99.6064 20.1042 100.398 20.4896C101.19 20.8646 101.82 21.3594 102.294 21.9688C102.763 22.5834 103.002 23.3334 103.002 24.2188C103.002 25.9844 102.044 27.3542 100.127 28.3229C98.2105 29.2813 95.523 29.7604 92.0647 29.7604Z" fill="black"/>
<path d="M118.354 29.7604C117.546 29.7604 116.645 29.7188 115.645 29.6354C114.645 29.5521 113.614 29.4375 112.562 29.2813C111.52 29.1146 110.51 28.9427 109.541 28.7604C108.583 28.5677 107.713 28.3646 106.937 28.1563C106.755 28.1042 106.609 27.9896 106.499 27.8229C106.4 27.6563 106.354 27.4688 106.354 27.2604C106.354 26.5521 106.354 25.8542 106.354 25.1563C106.364 24.4636 106.38 23.7709 106.395 23.0729C106.421 22.6979 106.583 22.4427 106.874 22.3021C107.176 22.1667 107.442 22.2136 107.666 22.4479C108.968 23.6719 110.541 24.5625 112.374 25.1146C114.218 25.6719 116.176 25.9479 118.249 25.9479C119.885 25.9479 121.192 25.7917 122.166 25.4688C123.135 25.1354 123.624 24.6354 123.624 23.9688C123.624 23.5261 123.385 23.1719 122.916 22.9063C122.442 22.6302 121.812 22.4063 121.02 22.2396C120.229 22.0729 119.343 21.9271 118.374 21.8021C117.4 21.6667 116.385 21.5209 115.333 21.3646C114.275 21.1979 113.255 20.9896 112.27 20.7396C111.296 20.4896 110.416 20.1719 109.624 19.7813C108.833 19.3802 108.197 18.875 107.729 18.2604C107.27 17.6511 107.041 16.8854 107.041 15.9688C107.041 15.0417 107.312 14.25 107.854 13.5938C108.395 12.9427 109.15 12.4063 110.124 11.9896C111.109 11.5729 112.255 11.2761 113.562 11.0938C114.864 10.9167 116.26 10.8229 117.749 10.8229C118.708 10.8229 119.708 10.8802 120.749 10.9896C121.791 11.0886 122.817 11.2396 123.833 11.4479C124.843 11.6563 125.77 11.9167 126.604 12.2188C126.989 12.3594 127.187 12.6302 127.187 13.0313V16.4896C127.187 16.8386 127.041 17.1042 126.749 17.2813C126.468 17.4636 126.208 17.4479 125.958 17.2396C124.885 16.4063 123.645 15.7604 122.229 15.3021C120.822 14.8438 119.416 14.6146 117.999 14.6146C117.083 14.6146 116.197 14.6771 115.354 14.8021C114.52 14.9271 113.838 15.125 113.312 15.3854C112.781 15.6511 112.52 16.0052 112.52 16.4479C112.52 16.8802 112.755 17.2292 113.229 17.4896C113.713 17.7552 114.354 17.9688 115.145 18.1354C115.937 18.2917 116.822 18.4271 117.812 18.5521C118.812 18.6771 119.838 18.8177 120.895 18.9688C121.963 19.1094 122.999 19.3021 123.999 19.5521C124.999 19.7917 125.895 20.1042 126.687 20.4896C127.479 20.8646 128.109 21.3594 128.583 21.9688C129.051 22.5834 129.291 23.3334 129.291 24.2188C129.291 25.9844 128.333 27.3542 126.416 28.3229C124.499 29.2813 121.812 29.7604 118.354 29.7604Z" fill="black"/>
<path d="M31.4375 28.125C31.2135 28.125 30.9583 28.1146 30.6667 28.1042C30.375 28.0885 30.0521 28.0625 29.7083 28.0208C29.5 27.9948 29.3229 27.9167 29.1875 27.7917C29.0625 27.6562 29 27.4896 29 27.2917C29 26.5729 29.1719 25.8229 29.5208 25.0417C29.8802 24.25 30.3594 23.5 30.9583 22.7917C31.5521 22.0833 32.2344 21.4583 33 20.9167C33.7604 20.375 34.5521 19.9948 35.375 19.7708C35.5677 19.7188 35.6667 19.6146 35.6667 19.4583C35.6771 19.2917 35.5885 19.1771 35.3958 19.1042C34.6146 18.8698 33.8854 18.5208 33.2083 18.0625C32.5417 17.5938 31.9479 17.0625 31.4375 16.4792C30.9375 15.8854 30.5417 15.2708 30.25 14.6458C29.9583 14.0104 29.8125 13.4062 29.8125 12.8333C29.8125 12.4323 30.0312 12.1875 30.4792 12.1042C30.8229 12.0521 31.1458 12.0208 31.4375 12.0208C31.7396 12.0104 32.0052 12 32.2292 12C32.4635 12 32.75 12.0104 33.0833 12.0208C33.4271 12.0365 33.7604 12.0625 34.0833 12.1042C34.4167 12.1615 34.6146 12.3333 34.6875 12.625C34.9479 13.5833 35.2969 14.4688 35.7292 15.2708C36.1719 16.0625 36.6719 16.6979 37.2292 17.1667C37.7812 17.6406 38.3333 17.875 38.875 17.875C39.4271 17.875 39.9896 17.625 40.5625 17.125C41.1302 16.625 41.6354 15.9792 42.0833 15.1875C42.5417 14.3958 42.8646 13.5417 43.0625 12.625C43.1042 12.3333 43.2969 12.1615 43.6458 12.1042C43.9792 12.0521 44.3177 12.0208 44.6667 12.0208C45.0104 12.0104 45.2969 12 45.5208 12C45.7396 12 46.0052 12.0104 46.3125 12.0208C46.6302 12.0365 46.9583 12.0625 47.2917 12.1042C47.4844 12.1198 47.6458 12.1979 47.7708 12.3333C47.8958 12.474 47.9583 12.6406 47.9583 12.8333C47.9427 13.4167 47.7812 14.0312 47.4792 14.6667C47.1875 15.2917 46.776 15.9062 46.25 16.5C45.7188 17.0833 45.125 17.6198 44.4583 18.1042C43.7917 18.5781 43.0938 18.9479 42.375 19.2083C42.1927 19.2656 42.1042 19.3698 42.1042 19.5208C42.1042 19.6615 42.1927 19.7656 42.375 19.8333C43.2083 20.1562 44 20.5938 44.75 21.1458C45.5104 21.6875 46.1927 22.3021 46.7917 22.9792C47.3854 23.6615 47.8646 24.375 48.2292 25.125C48.5885 25.8646 48.7708 26.5833 48.7708 27.2917C48.7708 27.4896 48.6979 27.6562 48.5625 27.7917C48.4219 27.9167 48.2552 27.9948 48.0625 28.0208C47.7292 28.0625 47.4062 28.0885 47.1042 28.1042C46.7969 28.1146 46.5417 28.125 46.3333 28.125C46.0104 28.125 45.6875 28.1146 45.3542 28.1042C45.0312 28.1042 44.7083 28.0729 44.375 28.0208C44.026 27.9792 43.8021 27.8073 43.7083 27.5C43.4688 26.724 43.1562 25.9583 42.7708 25.2083C42.3958 24.4583 41.9844 23.7812 41.5417 23.1667C41.0938 22.5573 40.6354 22.0625 40.1667 21.6875C39.7083 21.3125 39.276 21.125 38.875 21.125C38.4427 21.125 37.9844 21.3229 37.5 21.7083C37.026 22.0833 36.5521 22.5833 36.0833 23.2083C35.625 23.8229 35.2135 24.5 34.8542 25.25C34.4896 25.9896 34.2188 26.7292 34.0417 27.4792C33.9688 27.8021 33.7552 27.9792 33.3958 28.0208C33.0625 28.0729 32.7292 28.1042 32.3958 28.1042C32.0729 28.1146 31.7552 28.125 31.4375 28.125Z" fill="#6600FF"/>
<mask id="mask0_14970_14766" style="mask-type:luminance" maskUnits="userSpaceOnUse" x="35" y="5" width="8" height="8">
<path d="M35.7831 5.99481H42.4758V12.6354H35.7831V5.99481Z" fill="white"/>
</mask>
<g mask="url(#mask0_14970_14766)">
<mask id="mask1_14970_14766" style="mask-type:luminance" maskUnits="userSpaceOnUse" x="35" y="5" width="8" height="8">
<path d="M39.1164 5.99481C37.2727 5.99481 35.7831 7.47919 35.7831 9.31252C35.7831 11.1459 37.2727 12.6354 39.1164 12.6354C40.955 12.6354 42.4497 11.1459 42.4497 9.31252C42.4497 7.47919 40.955 5.99481 39.1164 5.99481Z" fill="white"/>
</mask>
<g mask="url(#mask1_14970_14766)">
<path d="M35.7831 5.99481H42.4497V12.6354H35.7831V5.99481Z" fill="#6600FF"/>
</g>
</g>
</svg>
