<svg xmlns="http://www.w3.org/2000/svg" xmlns:xlink="http://www.w3.org/1999/xlink" width="185" zoomAndPan="magnify" viewBox="0 0 138.75 31.5" height="42" preserveAspectRatio="xMidYMid meet" version="1.0"><defs><g/><clipPath id="7e45a8aeeb"><path d="M 38.964844 1.03125 L 45.972656 1.03125 L 45.972656 7.601562 L 38.964844 7.601562 Z M 38.964844 1.03125 " clip-rule="nonzero"/></clipPath><clipPath id="3797876adf"><path d="M 42.46875 1.03125 C 40.535156 1.03125 38.964844 2.5 38.964844 4.316406 C 38.964844 6.132812 40.535156 7.601562 42.46875 7.601562 C 44.402344 7.601562 45.972656 6.132812 45.972656 4.316406 C 45.972656 2.5 44.402344 1.03125 42.46875 1.03125 Z M 42.46875 1.03125 " clip-rule="nonzero"/></clipPath></defs><g fill="#ffffff" fill-opacity="1"><g transform="translate(5.994426, 24.415147)"><g><path d="M 11.703125 0.265625 C 8.171875 0.265625 5.445312 -0.460938 3.53125 -1.921875 C 1.625 -3.378906 0.671875 -5.445312 0.671875 -8.125 C 0.671875 -9.882812 0.722656 -11.585938 0.828125 -13.234375 C 0.941406 -14.878906 1.054688 -16.300781 1.171875 -17.5 C 1.222656 -17.9375 1.484375 -18.195312 1.953125 -18.28125 C 2.128906 -18.320312 2.359375 -18.347656 2.640625 -18.359375 C 2.921875 -18.378906 3.191406 -18.394531 3.453125 -18.40625 C 3.722656 -18.414062 3.921875 -18.421875 4.046875 -18.421875 C 4.171875 -18.421875 4.367188 -18.414062 4.640625 -18.40625 C 4.921875 -18.394531 5.207031 -18.378906 5.5 -18.359375 C 5.800781 -18.347656 6.03125 -18.320312 6.1875 -18.28125 C 6.394531 -18.25 6.585938 -18.148438 6.765625 -17.984375 C 6.953125 -17.816406 7.015625 -17.578125 6.953125 -17.265625 C 6.691406 -15.992188 6.472656 -14.570312 6.296875 -13 C 6.117188 -11.4375 6.066406 -9.875 6.140625 -8.3125 C 6.171875 -7.40625 6.40625 -6.578125 6.84375 -5.828125 C 7.28125 -5.078125 7.90625 -4.476562 8.71875 -4.03125 C 9.539062 -3.59375 10.535156 -3.375 11.703125 -3.375 C 12.890625 -3.375 13.890625 -3.601562 14.703125 -4.0625 C 15.523438 -4.519531 16.15625 -5.128906 16.59375 -5.890625 C 17.03125 -6.648438 17.265625 -7.457031 17.296875 -8.3125 C 17.367188 -9.875 17.3125 -11.425781 17.125 -12.96875 C 16.9375 -14.507812 16.710938 -15.941406 16.453125 -17.265625 C 16.390625 -17.578125 16.445312 -17.816406 16.625 -17.984375 C 16.8125 -18.148438 17 -18.25 17.1875 -18.28125 C 17.363281 -18.320312 17.597656 -18.347656 17.890625 -18.359375 C 18.191406 -18.378906 18.476562 -18.394531 18.75 -18.40625 C 19.03125 -18.414062 19.234375 -18.421875 19.359375 -18.421875 C 19.492188 -18.421875 19.691406 -18.414062 19.953125 -18.40625 C 20.210938 -18.394531 20.488281 -18.378906 20.78125 -18.359375 C 21.070312 -18.347656 21.300781 -18.320312 21.46875 -18.28125 C 21.925781 -18.195312 22.179688 -17.9375 22.234375 -17.5 C 22.410156 -16.300781 22.535156 -14.878906 22.609375 -13.234375 C 22.691406 -11.585938 22.734375 -9.882812 22.734375 -8.125 C 22.734375 -5.445312 21.773438 -3.378906 19.859375 -1.921875 C 17.953125 -0.460938 15.234375 0.265625 11.703125 0.265625 Z M 11.703125 0.265625 "/></g></g></g><g fill="#c49cff" fill-opacity="1"><g transform="translate(30.761453, 24.415147)"><g><path d="M 3.21875 0.125 C 2.957031 0.125 2.660156 0.113281 2.328125 0.09375 C 1.992188 0.0820312 1.628906 0.0507812 1.234375 0 C 0.984375 -0.03125 0.785156 -0.117188 0.640625 -0.265625 C 0.492188 -0.421875 0.421875 -0.613281 0.421875 -0.84375 C 0.421875 -1.675781 0.617188 -2.539062 1.015625 -3.4375 C 1.421875 -4.332031 1.96875 -5.1875 2.65625 -6 C 3.34375 -6.820312 4.125 -7.539062 5 -8.15625 C 5.882812 -8.78125 6.796875 -9.222656 7.734375 -9.484375 C 7.960938 -9.554688 8.078125 -9.679688 8.078125 -9.859375 C 8.085938 -10.046875 7.984375 -10.171875 7.765625 -10.234375 C 6.867188 -10.515625 6.035156 -10.921875 5.265625 -11.453125 C 4.492188 -11.984375 3.8125 -12.585938 3.21875 -13.265625 C 2.632812 -13.953125 2.171875 -14.660156 1.828125 -15.390625 C 1.492188 -16.117188 1.328125 -16.804688 1.328125 -17.453125 C 1.328125 -17.921875 1.585938 -18.195312 2.109375 -18.28125 C 2.515625 -18.351562 2.882812 -18.394531 3.21875 -18.40625 C 3.5625 -18.414062 3.863281 -18.421875 4.125 -18.421875 C 4.382812 -18.421875 4.707031 -18.410156 5.09375 -18.390625 C 5.488281 -18.367188 5.875 -18.332031 6.25 -18.28125 C 6.625 -18.226562 6.859375 -18.03125 6.953125 -17.6875 C 7.242188 -16.59375 7.640625 -15.585938 8.140625 -14.671875 C 8.648438 -13.753906 9.222656 -13.019531 9.859375 -12.46875 C 10.492188 -11.925781 11.125 -11.65625 11.75 -11.65625 C 12.394531 -11.65625 13.046875 -11.941406 13.703125 -12.515625 C 14.359375 -13.085938 14.941406 -13.832031 15.453125 -14.75 C 15.960938 -15.664062 16.332031 -16.644531 16.5625 -17.6875 C 16.613281 -18.03125 16.84375 -18.226562 17.25 -18.28125 C 17.625 -18.351562 18.007812 -18.394531 18.40625 -18.40625 C 18.8125 -18.414062 19.140625 -18.421875 19.390625 -18.421875 C 19.648438 -18.421875 19.957031 -18.410156 20.3125 -18.390625 C 20.664062 -18.367188 21.035156 -18.332031 21.421875 -18.28125 C 21.648438 -18.269531 21.835938 -18.1875 21.984375 -18.03125 C 22.128906 -17.875 22.203125 -17.679688 22.203125 -17.453125 C 22.191406 -16.785156 22.007812 -16.085938 21.65625 -15.359375 C 21.3125 -14.628906 20.835938 -13.921875 20.234375 -13.234375 C 19.628906 -12.554688 18.941406 -11.941406 18.171875 -11.390625 C 17.410156 -10.847656 16.613281 -10.429688 15.78125 -10.140625 C 15.570312 -10.066406 15.46875 -9.945312 15.46875 -9.78125 C 15.46875 -9.613281 15.570312 -9.488281 15.78125 -9.40625 C 16.738281 -9.039062 17.648438 -8.539062 18.515625 -7.90625 C 19.390625 -7.28125 20.171875 -6.578125 20.859375 -5.796875 C 21.546875 -5.015625 22.09375 -4.195312 22.5 -3.34375 C 22.914062 -2.488281 23.125 -1.65625 23.125 -0.84375 C 23.125 -0.613281 23.046875 -0.421875 22.890625 -0.265625 C 22.734375 -0.117188 22.539062 -0.03125 22.3125 0 C 21.925781 0.0507812 21.554688 0.0820312 21.203125 0.09375 C 20.859375 0.113281 20.566406 0.125 20.328125 0.125 C 19.960938 0.125 19.59375 0.117188 19.21875 0.109375 C 18.84375 0.109375 18.460938 0.0703125 18.078125 0 C 17.679688 -0.0507812 17.429688 -0.25 17.328125 -0.59375 C 17.046875 -1.488281 16.6875 -2.363281 16.25 -3.21875 C 15.8125 -4.082031 15.335938 -4.867188 14.828125 -5.578125 C 14.316406 -6.285156 13.796875 -6.851562 13.265625 -7.28125 C 12.734375 -7.707031 12.226562 -7.921875 11.75 -7.921875 C 11.269531 -7.921875 10.75 -7.703125 10.1875 -7.265625 C 9.632812 -6.828125 9.09375 -6.25 8.5625 -5.53125 C 8.03125 -4.820312 7.550781 -4.039062 7.125 -3.1875 C 6.707031 -2.332031 6.394531 -1.476562 6.1875 -0.625 C 6.125 -0.257812 5.878906 -0.0507812 5.453125 0 C 5.078125 0.0703125 4.703125 0.109375 4.328125 0.109375 C 3.953125 0.117188 3.582031 0.125 3.21875 0.125 Z M 3.21875 0.125 "/></g></g></g><g fill="#ffffff" fill-opacity="1"><g transform="translate(56.335976, 24.415147)"><g><path d="M 11.4375 0.125 C 10.9375 0.125 10.316406 0.117188 9.578125 0.109375 C 8.847656 0.109375 8.082031 0.101562 7.28125 0.09375 C 6.488281 0.0820312 5.71875 0.0703125 4.96875 0.0625 C 4.21875 0.0507812 3.554688 0.0390625 2.984375 0.03125 C 2.421875 0.03125 2.019531 0.0195312 1.78125 0 C 1.519531 -0.0195312 1.300781 -0.09375 1.125 -0.21875 C 0.945312 -0.351562 0.859375 -0.550781 0.859375 -0.8125 C 0.878906 -1.945312 0.90625 -3.210938 0.9375 -4.609375 C 0.976562 -6.015625 1.023438 -7.472656 1.078125 -8.984375 C 1.128906 -10.503906 1.195312 -12 1.28125 -13.46875 C 1.363281 -14.9375 1.457031 -16.300781 1.5625 -17.5625 C 1.601562 -17.800781 1.703125 -17.976562 1.859375 -18.09375 C 2.023438 -18.207031 2.234375 -18.269531 2.484375 -18.28125 C 2.691406 -18.300781 3.050781 -18.316406 3.5625 -18.328125 C 4.082031 -18.335938 4.6875 -18.34375 5.375 -18.34375 C 6.070312 -18.351562 6.796875 -18.363281 7.546875 -18.375 C 8.296875 -18.382812 9.015625 -18.390625 9.703125 -18.390625 C 10.390625 -18.390625 10.988281 -18.390625 11.5 -18.390625 C 12.4375 -18.390625 13.453125 -18.390625 14.546875 -18.390625 C 15.648438 -18.390625 16.71875 -18.378906 17.75 -18.359375 C 18.789062 -18.347656 19.675781 -18.320312 20.40625 -18.28125 C 20.90625 -18.269531 21.179688 -18.007812 21.234375 -17.5 C 21.285156 -17.101562 21.328125 -16.585938 21.359375 -15.953125 C 21.398438 -15.328125 21.4375 -14.707031 21.46875 -14.09375 C 21.507812 -13.476562 21.53125 -12.976562 21.53125 -12.59375 C 21.539062 -12.1875 21.390625 -11.945312 21.078125 -11.875 C 20.765625 -11.8125 20.476562 -11.957031 20.21875 -12.3125 C 19.5625 -13.226562 18.539062 -13.890625 17.15625 -14.296875 C 15.78125 -14.710938 13.945312 -14.921875 11.65625 -14.921875 C 10.59375 -14.921875 9.617188 -14.851562 8.734375 -14.71875 C 7.859375 -14.59375 7.160156 -14.367188 6.640625 -14.046875 C 6.128906 -13.734375 5.875 -13.300781 5.875 -12.75 L 5.875 -12.59375 C 5.875 -11.5 7.296875 -10.953125 10.140625 -10.953125 C 10.796875 -10.953125 11.53125 -10.960938 12.34375 -10.984375 C 13.164062 -11.015625 13.976562 -11.050781 14.78125 -11.09375 C 15.582031 -11.132812 16.28125 -11.179688 16.875 -11.234375 C 17.125 -11.265625 17.335938 -11.195312 17.515625 -11.03125 C 17.703125 -10.875 17.796875 -10.671875 17.796875 -10.421875 L 17.796875 -7.9375 C 17.796875 -7.664062 17.6875 -7.484375 17.46875 -7.390625 C 17.25 -7.304688 16.988281 -7.351562 16.6875 -7.53125 C 16.21875 -7.75 15.640625 -7.921875 14.953125 -8.046875 C 14.265625 -8.171875 13.539062 -8.257812 12.78125 -8.3125 C 12.03125 -8.363281 11.316406 -8.390625 10.640625 -8.390625 C 9.816406 -8.390625 9.035156 -8.335938 8.296875 -8.234375 C 7.554688 -8.128906 6.957031 -7.929688 6.5 -7.640625 C 6.050781 -7.347656 5.828125 -6.9375 5.828125 -6.40625 L 5.828125 -6.0625 C 5.828125 -5.414062 6.148438 -4.898438 6.796875 -4.515625 C 7.453125 -4.128906 8.3125 -3.859375 9.375 -3.703125 C 10.4375 -3.546875 11.5625 -3.46875 12.75 -3.46875 C 14.09375 -3.46875 15.226562 -3.539062 16.15625 -3.6875 C 17.09375 -3.84375 17.878906 -4.070312 18.515625 -4.375 C 19.160156 -4.675781 19.71875 -5.066406 20.1875 -5.546875 C 20.664062 -6.023438 21.113281 -6.597656 21.53125 -7.265625 C 21.71875 -7.597656 21.976562 -7.742188 22.3125 -7.703125 C 22.65625 -7.671875 22.851562 -7.453125 22.90625 -7.046875 C 22.957031 -6.703125 23.003906 -6.242188 23.046875 -5.671875 C 23.097656 -5.097656 23.148438 -4.488281 23.203125 -3.84375 C 23.253906 -3.195312 23.296875 -2.585938 23.328125 -2.015625 C 23.359375 -1.441406 23.382812 -0.976562 23.40625 -0.625 C 23.4375 -0.226562 23.21875 -0.0195312 22.75 0 C 22.144531 0.03125 21.351562 0.0546875 20.375 0.078125 C 19.40625 0.0976562 18.363281 0.109375 17.25 0.109375 C 16.144531 0.117188 15.078125 0.125 14.046875 0.125 C 13.023438 0.125 12.15625 0.125 11.4375 0.125 Z M 11.4375 0.125 "/></g></g></g><g fill="#ffffff" fill-opacity="1"><g transform="translate(82.479933, 24.415147)"><g><path d="M 12.5625 0.234375 C 11.757812 0.234375 10.863281 0.1875 9.875 0.09375 C 8.882812 0.0078125 7.867188 -0.109375 6.828125 -0.265625 C 5.796875 -0.421875 4.800781 -0.585938 3.84375 -0.765625 C 2.882812 -0.953125 2.019531 -1.148438 1.25 -1.359375 C 1.082031 -1.410156 0.941406 -1.519531 0.828125 -1.6875 C 0.722656 -1.851562 0.671875 -2.039062 0.671875 -2.25 C 0.671875 -2.945312 0.675781 -3.640625 0.6875 -4.328125 C 0.695312 -5.015625 0.710938 -5.707031 0.734375 -6.40625 C 0.742188 -6.769531 0.894531 -7.019531 1.1875 -7.15625 C 1.488281 -7.300781 1.753906 -7.25 1.984375 -7 C 3.273438 -5.800781 4.828125 -4.925781 6.640625 -4.375 C 8.460938 -3.820312 10.40625 -3.546875 12.46875 -3.546875 C 14.082031 -3.546875 15.367188 -3.707031 16.328125 -4.03125 C 17.285156 -4.351562 17.765625 -4.847656 17.765625 -5.515625 C 17.765625 -5.953125 17.53125 -6.300781 17.0625 -6.5625 C 16.601562 -6.832031 15.984375 -7.050781 15.203125 -7.21875 C 14.421875 -7.382812 13.546875 -7.53125 12.578125 -7.65625 C 11.609375 -7.789062 10.601562 -7.9375 9.5625 -8.09375 C 8.519531 -8.25 7.515625 -8.445312 6.546875 -8.6875 C 5.578125 -8.9375 4.703125 -9.253906 3.921875 -9.640625 C 3.140625 -10.035156 2.515625 -10.535156 2.046875 -11.140625 C 1.585938 -11.753906 1.359375 -12.515625 1.359375 -13.421875 C 1.359375 -14.347656 1.628906 -15.132812 2.171875 -15.78125 C 2.710938 -16.425781 3.460938 -16.953125 4.421875 -17.359375 C 5.390625 -17.765625 6.519531 -18.054688 7.8125 -18.234375 C 9.101562 -18.421875 10.488281 -18.515625 11.96875 -18.515625 C 12.90625 -18.515625 13.890625 -18.460938 14.921875 -18.359375 C 15.960938 -18.253906 16.984375 -18.097656 17.984375 -17.890625 C 18.984375 -17.679688 19.894531 -17.429688 20.71875 -17.140625 C 21.101562 -16.992188 21.296875 -16.722656 21.296875 -16.328125 L 21.296875 -12.90625 C 21.296875 -12.5625 21.15625 -12.300781 20.875 -12.125 C 20.59375 -11.945312 20.332031 -11.960938 20.09375 -12.171875 C 19.03125 -12.992188 17.800781 -13.628906 16.40625 -14.078125 C 15.007812 -14.535156 13.609375 -14.765625 12.203125 -14.765625 C 11.296875 -14.765625 10.425781 -14.703125 9.59375 -14.578125 C 8.769531 -14.453125 8.097656 -14.257812 7.578125 -14 C 7.054688 -13.738281 6.796875 -13.390625 6.796875 -12.953125 C 6.796875 -12.523438 7.03125 -12.175781 7.5 -11.90625 C 7.96875 -11.644531 8.59375 -11.4375 9.375 -11.28125 C 10.15625 -11.125 11.035156 -10.984375 12.015625 -10.859375 C 13.003906 -10.742188 14.023438 -10.609375 15.078125 -10.453125 C 16.140625 -10.304688 17.160156 -10.113281 18.140625 -9.875 C 19.128906 -9.644531 20.015625 -9.335938 20.796875 -8.953125 C 21.578125 -8.578125 22.203125 -8.085938 22.671875 -7.484375 C 23.140625 -6.878906 23.375 -6.132812 23.375 -5.25 C 23.375 -3.507812 22.425781 -2.160156 20.53125 -1.203125 C 18.632812 -0.242188 15.976562 0.234375 12.5625 0.234375 Z M 12.5625 0.234375 "/></g></g></g><g fill="#ffffff" fill-opacity="1"><g transform="translate(108.493304, 24.415147)"><g><path d="M 12.5625 0.234375 C 11.757812 0.234375 10.863281 0.1875 9.875 0.09375 C 8.882812 0.0078125 7.867188 -0.109375 6.828125 -0.265625 C 5.796875 -0.421875 4.800781 -0.585938 3.84375 -0.765625 C 2.882812 -0.953125 2.019531 -1.148438 1.25 -1.359375 C 1.082031 -1.410156 0.941406 -1.519531 0.828125 -1.6875 C 0.722656 -1.851562 0.671875 -2.039062 0.671875 -2.25 C 0.671875 -2.945312 0.675781 -3.640625 0.6875 -4.328125 C 0.695312 -5.015625 0.710938 -5.707031 0.734375 -6.40625 C 0.742188 -6.769531 0.894531 -7.019531 1.1875 -7.15625 C 1.488281 -7.300781 1.753906 -7.25 1.984375 -7 C 3.273438 -5.800781 4.828125 -4.925781 6.640625 -4.375 C 8.460938 -3.820312 10.40625 -3.546875 12.46875 -3.546875 C 14.082031 -3.546875 15.367188 -3.707031 16.328125 -4.03125 C 17.285156 -4.351562 17.765625 -4.847656 17.765625 -5.515625 C 17.765625 -5.953125 17.53125 -6.300781 17.0625 -6.5625 C 16.601562 -6.832031 15.984375 -7.050781 15.203125 -7.21875 C 14.421875 -7.382812 13.546875 -7.53125 12.578125 -7.65625 C 11.609375 -7.789062 10.601562 -7.9375 9.5625 -8.09375 C 8.519531 -8.25 7.515625 -8.445312 6.546875 -8.6875 C 5.578125 -8.9375 4.703125 -9.253906 3.921875 -9.640625 C 3.140625 -10.035156 2.515625 -10.535156 2.046875 -11.140625 C 1.585938 -11.753906 1.359375 -12.515625 1.359375 -13.421875 C 1.359375 -14.347656 1.628906 -15.132812 2.171875 -15.78125 C 2.710938 -16.425781 3.460938 -16.953125 4.421875 -17.359375 C 5.390625 -17.765625 6.519531 -18.054688 7.8125 -18.234375 C 9.101562 -18.421875 10.488281 -18.515625 11.96875 -18.515625 C 12.90625 -18.515625 13.890625 -18.460938 14.921875 -18.359375 C 15.960938 -18.253906 16.984375 -18.097656 17.984375 -17.890625 C 18.984375 -17.679688 19.894531 -17.429688 20.71875 -17.140625 C 21.101562 -16.992188 21.296875 -16.722656 21.296875 -16.328125 L 21.296875 -12.90625 C 21.296875 -12.5625 21.15625 -12.300781 20.875 -12.125 C 20.59375 -11.945312 20.332031 -11.960938 20.09375 -12.171875 C 19.03125 -12.992188 17.800781 -13.628906 16.40625 -14.078125 C 15.007812 -14.535156 13.609375 -14.765625 12.203125 -14.765625 C 11.296875 -14.765625 10.425781 -14.703125 9.59375 -14.578125 C 8.769531 -14.453125 8.097656 -14.257812 7.578125 -14 C 7.054688 -13.738281 6.796875 -13.390625 6.796875 -12.953125 C 6.796875 -12.523438 7.03125 -12.175781 7.5 -11.90625 C 7.96875 -11.644531 8.59375 -11.4375 9.375 -11.28125 C 10.15625 -11.125 11.035156 -10.984375 12.015625 -10.859375 C 13.003906 -10.742188 14.023438 -10.609375 15.078125 -10.453125 C 16.140625 -10.304688 17.160156 -10.113281 18.140625 -9.875 C 19.128906 -9.644531 20.015625 -9.335938 20.796875 -8.953125 C 21.578125 -8.578125 22.203125 -8.085938 22.671875 -7.484375 C 23.140625 -6.878906 23.375 -6.132812 23.375 -5.25 C 23.375 -3.507812 22.425781 -2.160156 20.53125 -1.203125 C 18.632812 -0.242188 15.976562 0.234375 12.5625 0.234375 Z M 12.5625 0.234375 "/></g></g></g><g fill="#ffffff" fill-opacity="1"><g transform="translate(32.330957, 22.886719)"><g><path d="M 2.765625 0.109375 C 2.535156 0.109375 2.28125 0.0976562 2 0.078125 C 1.71875 0.0664062 1.40625 0.0390625 1.0625 0 C 0.84375 -0.03125 0.671875 -0.109375 0.546875 -0.234375 C 0.421875 -0.359375 0.359375 -0.519531 0.359375 -0.71875 C 0.359375 -1.4375 0.53125 -2.179688 0.875 -2.953125 C 1.21875 -3.722656 1.6875 -4.460938 2.28125 -5.171875 C 2.875 -5.878906 3.546875 -6.5 4.296875 -7.03125 C 5.054688 -7.5625 5.84375 -7.9375 6.65625 -8.15625 C 6.851562 -8.21875 6.953125 -8.328125 6.953125 -8.484375 C 6.960938 -8.640625 6.867188 -8.75 6.671875 -8.8125 C 5.910156 -9.050781 5.195312 -9.398438 4.53125 -9.859375 C 3.863281 -10.316406 3.28125 -10.835938 2.78125 -11.421875 C 2.28125 -12.003906 1.878906 -12.609375 1.578125 -13.234375 C 1.285156 -13.867188 1.140625 -14.460938 1.140625 -15.015625 C 1.140625 -15.421875 1.367188 -15.660156 1.828125 -15.734375 C 2.171875 -15.796875 2.488281 -15.828125 2.78125 -15.828125 C 3.070312 -15.835938 3.328125 -15.84375 3.546875 -15.84375 C 3.773438 -15.84375 4.054688 -15.835938 4.390625 -15.828125 C 4.734375 -15.816406 5.0625 -15.785156 5.375 -15.734375 C 5.707031 -15.691406 5.910156 -15.519531 5.984375 -15.21875 C 6.234375 -14.28125 6.578125 -13.414062 7.015625 -12.625 C 7.453125 -11.832031 7.941406 -11.203125 8.484375 -10.734375 C 9.035156 -10.265625 9.582031 -10.03125 10.125 -10.03125 C 10.675781 -10.03125 11.234375 -10.273438 11.796875 -10.765625 C 12.359375 -11.265625 12.859375 -11.90625 13.296875 -12.6875 C 13.742188 -13.476562 14.0625 -14.320312 14.25 -15.21875 C 14.300781 -15.519531 14.5 -15.691406 14.84375 -15.734375 C 15.164062 -15.796875 15.5 -15.828125 15.84375 -15.828125 C 16.195312 -15.835938 16.476562 -15.84375 16.6875 -15.84375 C 16.90625 -15.84375 17.164062 -15.835938 17.46875 -15.828125 C 17.78125 -15.816406 18.101562 -15.785156 18.4375 -15.734375 C 18.632812 -15.722656 18.796875 -15.648438 18.921875 -15.515625 C 19.046875 -15.378906 19.109375 -15.210938 19.109375 -15.015625 C 19.097656 -14.453125 18.941406 -13.851562 18.640625 -13.21875 C 18.335938 -12.59375 17.925781 -11.984375 17.40625 -11.390625 C 16.894531 -10.804688 16.304688 -10.28125 15.640625 -9.8125 C 14.984375 -9.34375 14.296875 -8.976562 13.578125 -8.71875 C 13.398438 -8.664062 13.3125 -8.566406 13.3125 -8.421875 C 13.3125 -8.273438 13.398438 -8.164062 13.578125 -8.09375 C 14.398438 -7.78125 15.1875 -7.351562 15.9375 -6.8125 C 16.6875 -6.269531 17.359375 -5.660156 17.953125 -4.984375 C 18.546875 -4.316406 19.019531 -3.613281 19.375 -2.875 C 19.726562 -2.144531 19.90625 -1.425781 19.90625 -0.71875 C 19.90625 -0.519531 19.835938 -0.359375 19.703125 -0.234375 C 19.566406 -0.109375 19.398438 -0.03125 19.203125 0 C 18.867188 0.0390625 18.550781 0.0664062 18.25 0.078125 C 17.957031 0.0976562 17.707031 0.109375 17.5 0.109375 C 17.175781 0.109375 16.851562 0.101562 16.53125 0.09375 C 16.207031 0.09375 15.882812 0.0625 15.5625 0 C 15.21875 -0.0390625 15 -0.210938 14.90625 -0.515625 C 14.664062 -1.273438 14.359375 -2.023438 13.984375 -2.765625 C 13.609375 -3.515625 13.195312 -4.191406 12.75 -4.796875 C 12.3125 -5.410156 11.863281 -5.898438 11.40625 -6.265625 C 10.945312 -6.628906 10.519531 -6.8125 10.125 -6.8125 C 9.695312 -6.8125 9.242188 -6.625 8.765625 -6.25 C 8.285156 -5.875 7.816406 -5.378906 7.359375 -4.765625 C 6.898438 -4.148438 6.488281 -3.472656 6.125 -2.734375 C 5.769531 -2.003906 5.503906 -1.273438 5.328125 -0.546875 C 5.265625 -0.222656 5.054688 -0.0390625 4.703125 0 C 4.367188 0.0625 4.039062 0.09375 3.71875 0.09375 C 3.394531 0.101562 3.078125 0.109375 2.765625 0.109375 Z M 2.765625 0.109375 "/></g></g></g><g clip-path="url(#7e45a8aeeb)"><g clip-path="url(#3797876adf)"><path fill="#c49cff" d="M 38.964844 1.03125 L 45.972656 1.03125 L 45.972656 7.601562 L 38.964844 7.601562 Z M 38.964844 1.03125 " fill-opacity="1" fill-rule="nonzero"/></g></g></svg>