<svg xmlns="http://www.w3.org/2000/svg" xmlns:xlink="http://www.w3.org/1999/xlink" width="138" zoomAndPan="magnify" viewBox="0 0 103.5 31.5" height="42" preserveAspectRatio="xMidYMid meet" version="1.0"><defs><clipPath id="baffc7abbf"><path d="M 27.996094 4.699219 L 33.441406 4.699219 L 33.441406 9.738281 L 27.996094 9.738281 Z M 27.996094 4.699219 " clip-rule="nonzero"/></clipPath><clipPath id="1ab02e644b"><path d="M 30.71875 4.699219 C 29.21875 4.699219 27.996094 5.824219 27.996094 7.21875 C 27.996094 8.609375 29.21875 9.738281 30.71875 9.738281 C 32.222656 9.738281 33.441406 8.609375 33.441406 7.21875 C 33.441406 5.824219 32.222656 4.699219 30.71875 4.699219 Z M 30.71875 4.699219 " clip-rule="nonzero"/></clipPath></defs><path fill="#ffffff" d="M 11.476562 22.828125 C 8.734375 22.828125 6.613281 22.273438 5.128906 21.152344 C 3.644531 20.035156 2.90625 18.453125 2.90625 16.398438 C 2.90625 15.050781 2.945312 13.746094 3.027344 12.480469 C 3.117188 11.21875 3.203125 10.128906 3.292969 9.210938 C 3.332031 8.875 3.539062 8.679688 3.902344 8.613281 C 4.039062 8.582031 4.21875 8.5625 4.433594 8.550781 C 4.652344 8.535156 4.863281 8.523438 5.066406 8.515625 C 5.277344 8.511719 5.429688 8.503906 5.527344 8.503906 C 5.625 8.503906 5.777344 8.511719 5.988281 8.515625 C 6.207031 8.523438 6.429688 8.535156 6.65625 8.550781 C 6.890625 8.5625 7.070312 8.582031 7.191406 8.613281 C 7.351562 8.636719 7.5 8.714844 7.640625 8.839844 C 7.785156 8.96875 7.835938 9.152344 7.785156 9.390625 C 7.582031 10.367188 7.414062 11.457031 7.277344 12.660156 C 7.136719 13.859375 7.097656 15.054688 7.15625 16.253906 C 7.179688 16.949219 7.359375 17.582031 7.699219 18.160156 C 8.039062 18.734375 8.527344 19.195312 9.15625 19.535156 C 9.792969 19.871094 10.570312 20.039062 11.476562 20.039062 C 12.398438 20.039062 13.175781 19.867188 13.804688 19.511719 C 14.445312 19.160156 14.933594 18.695312 15.273438 18.109375 C 15.613281 17.53125 15.796875 16.910156 15.820312 16.253906 C 15.875 15.054688 15.832031 13.867188 15.6875 12.683594 C 15.542969 11.503906 15.367188 10.40625 15.164062 9.390625 C 15.117188 9.152344 15.160156 8.96875 15.300781 8.839844 C 15.445312 8.714844 15.589844 8.636719 15.738281 8.613281 C 15.871094 8.582031 16.054688 8.5625 16.28125 8.550781 C 16.515625 8.535156 16.738281 8.523438 16.949219 8.515625 C 17.167969 8.511719 17.328125 8.503906 17.421875 8.503906 C 17.527344 8.503906 17.679688 8.511719 17.886719 8.515625 C 18.085938 8.523438 18.300781 8.535156 18.527344 8.550781 C 18.753906 8.5625 18.933594 8.582031 19.0625 8.613281 C 19.417969 8.679688 19.613281 8.875 19.65625 9.210938 C 19.792969 10.128906 19.890625 11.21875 19.949219 12.480469 C 20.011719 13.746094 20.046875 15.050781 20.046875 16.398438 C 20.046875 18.453125 19.300781 20.035156 17.8125 21.152344 C 16.332031 22.273438 14.21875 22.828125 11.476562 22.828125 Z M 11.476562 22.828125 " fill-opacity="1" fill-rule="nonzero"/><path fill="#c49cff" d="M 24.125 22.722656 C 23.921875 22.722656 23.691406 22.714844 23.433594 22.699219 C 23.171875 22.6875 22.890625 22.664062 22.582031 22.625 C 22.390625 22.601562 22.234375 22.535156 22.121094 22.421875 C 22.007812 22.304688 21.953125 22.15625 21.953125 21.980469 C 21.953125 21.339844 22.105469 20.679688 22.414062 19.992188 C 22.730469 19.304688 23.152344 18.648438 23.6875 18.027344 C 24.222656 17.398438 24.828125 16.847656 25.507812 16.375 C 26.195312 15.894531 26.90625 15.554688 27.632812 15.355469 C 27.808594 15.300781 27.898438 15.207031 27.898438 15.066406 C 27.90625 14.925781 27.828125 14.828125 27.65625 14.78125 C 26.960938 14.566406 26.3125 14.253906 25.714844 13.847656 C 25.113281 13.4375 24.585938 12.976562 24.125 12.457031 C 23.667969 11.929688 23.3125 11.386719 23.042969 10.828125 C 22.785156 10.269531 22.65625 9.742188 22.65625 9.246094 C 22.65625 8.886719 22.855469 8.679688 23.261719 8.613281 C 23.578125 8.558594 23.863281 8.523438 24.125 8.515625 C 24.390625 8.511719 24.625 8.503906 24.828125 8.503906 C 25.03125 8.503906 25.28125 8.511719 25.582031 8.527344 C 25.886719 8.546875 26.1875 8.574219 26.480469 8.613281 C 26.769531 8.652344 26.953125 8.804688 27.027344 9.066406 C 27.25 9.90625 27.558594 10.679688 27.949219 11.378906 C 28.34375 12.082031 28.789062 12.644531 29.285156 13.066406 C 29.777344 13.484375 30.265625 13.691406 30.753906 13.691406 C 31.253906 13.691406 31.761719 13.472656 32.269531 13.03125 C 32.78125 12.59375 33.230469 12.023438 33.628906 11.320312 C 34.023438 10.617188 34.3125 9.867188 34.492188 9.066406 C 34.53125 8.804688 34.710938 8.652344 35.023438 8.613281 C 35.316406 8.558594 35.613281 8.523438 35.921875 8.515625 C 36.238281 8.511719 36.492188 8.503906 36.6875 8.503906 C 36.886719 8.503906 37.128906 8.511719 37.40625 8.527344 C 37.675781 8.546875 37.964844 8.574219 38.265625 8.613281 C 38.441406 8.621094 38.589844 8.683594 38.703125 8.804688 C 38.816406 8.921875 38.875 9.074219 38.875 9.246094 C 38.863281 9.757812 38.722656 10.292969 38.449219 10.851562 C 38.179688 11.410156 37.8125 11.953125 37.34375 12.480469 C 36.875 13 36.339844 13.472656 35.742188 13.894531 C 35.148438 14.308594 34.53125 14.632812 33.882812 14.851562 C 33.71875 14.910156 33.640625 15.003906 33.640625 15.128906 C 33.640625 15.257812 33.71875 15.351562 33.882812 15.414062 C 34.628906 15.695312 35.335938 16.082031 36.007812 16.566406 C 36.6875 17.042969 37.296875 17.582031 37.828125 18.183594 C 38.363281 18.78125 38.789062 19.410156 39.105469 20.0625 C 39.425781 20.71875 39.589844 21.355469 39.589844 21.980469 C 39.589844 22.15625 39.527344 22.304688 39.40625 22.421875 C 39.285156 22.535156 39.132812 22.601562 38.957031 22.625 C 38.65625 22.664062 38.371094 22.6875 38.097656 22.699219 C 37.828125 22.714844 37.601562 22.722656 37.417969 22.722656 C 37.132812 22.722656 36.847656 22.714844 36.554688 22.710938 C 36.261719 22.710938 35.964844 22.679688 35.667969 22.625 C 35.359375 22.585938 35.164062 22.433594 35.085938 22.171875 C 34.867188 21.484375 34.589844 20.816406 34.25 20.160156 C 33.910156 19.496094 33.539062 18.894531 33.144531 18.351562 C 32.746094 17.808594 32.34375 17.375 31.929688 17.042969 C 31.515625 16.71875 31.121094 16.554688 30.753906 16.554688 C 30.378906 16.554688 29.976562 16.722656 29.539062 17.054688 C 29.109375 17.390625 28.6875 17.835938 28.277344 18.386719 C 27.863281 18.929688 27.492188 19.53125 27.160156 20.183594 C 26.835938 20.839844 26.59375 21.496094 26.429688 22.148438 C 26.382812 22.429688 26.191406 22.585938 25.859375 22.625 C 25.570312 22.679688 25.277344 22.710938 24.988281 22.710938 C 24.695312 22.714844 24.40625 22.722656 24.125 22.722656 Z M 24.125 22.722656 " fill-opacity="1" fill-rule="nonzero"/><path fill="#ffffff" d="M 50.378906 22.722656 C 49.988281 22.722656 49.507812 22.714844 48.933594 22.710938 C 48.367188 22.710938 47.769531 22.703125 47.148438 22.699219 C 46.53125 22.6875 45.933594 22.679688 45.351562 22.675781 C 44.769531 22.664062 44.253906 22.65625 43.8125 22.648438 C 43.375 22.648438 43.0625 22.640625 42.875 22.625 C 42.671875 22.613281 42.503906 22.554688 42.367188 22.457031 C 42.226562 22.355469 42.160156 22.203125 42.160156 22.003906 C 42.175781 21.136719 42.195312 20.164062 42.21875 19.09375 C 42.25 18.015625 42.289062 16.898438 42.328125 15.738281 C 42.371094 14.574219 42.421875 13.425781 42.488281 12.300781 C 42.550781 11.175781 42.625 10.128906 42.707031 9.164062 C 42.738281 8.980469 42.816406 8.84375 42.9375 8.753906 C 43.0625 8.667969 43.226562 8.621094 43.421875 8.613281 C 43.582031 8.597656 43.863281 8.585938 44.261719 8.574219 C 44.664062 8.570312 45.132812 8.5625 45.667969 8.5625 C 46.207031 8.558594 46.773438 8.550781 47.355469 8.539062 C 47.9375 8.535156 48.496094 8.527344 49.03125 8.527344 C 49.5625 8.527344 50.027344 8.527344 50.425781 8.527344 C 51.15625 8.527344 51.945312 8.527344 52.792969 8.527344 C 53.648438 8.527344 54.480469 8.535156 55.28125 8.550781 C 56.089844 8.5625 56.777344 8.582031 57.34375 8.613281 C 57.734375 8.621094 57.945312 8.820312 57.988281 9.210938 C 58.027344 9.515625 58.0625 9.910156 58.085938 10.398438 C 58.117188 10.875 58.144531 11.351562 58.171875 11.820312 C 58.199219 12.296875 58.21875 12.679688 58.21875 12.972656 C 58.226562 13.285156 58.109375 13.46875 57.867188 13.523438 C 57.625 13.570312 57.398438 13.460938 57.199219 13.1875 C 56.691406 12.488281 55.894531 11.976562 54.820312 11.667969 C 53.753906 11.347656 52.324219 11.1875 50.546875 11.1875 C 49.722656 11.1875 48.964844 11.242188 48.277344 11.34375 C 47.597656 11.4375 47.054688 11.613281 46.652344 11.859375 C 46.253906 12.097656 46.054688 12.429688 46.054688 12.851562 L 46.054688 12.972656 C 46.054688 13.808594 47.160156 14.230469 49.371094 14.230469 C 49.878906 14.230469 50.449219 14.222656 51.082031 14.207031 C 51.71875 14.183594 52.351562 14.15625 52.976562 14.121094 C 53.597656 14.09375 54.140625 14.054688 54.601562 14.015625 C 54.796875 13.988281 54.960938 14.042969 55.097656 14.167969 C 55.246094 14.289062 55.316406 14.445312 55.316406 14.636719 L 55.316406 16.542969 C 55.316406 16.75 55.234375 16.890625 55.0625 16.960938 C 54.894531 17.027344 54.691406 16.992188 54.457031 16.851562 C 54.09375 16.683594 53.644531 16.554688 53.109375 16.457031 C 52.574219 16.363281 52.011719 16.296875 51.421875 16.253906 C 50.839844 16.214844 50.285156 16.195312 49.757812 16.195312 C 49.117188 16.195312 48.511719 16.234375 47.9375 16.3125 C 47.359375 16.394531 46.898438 16.546875 46.542969 16.769531 C 46.191406 16.992188 46.019531 17.308594 46.019531 17.714844 L 46.019531 17.980469 C 46.019531 18.476562 46.269531 18.871094 46.773438 19.164062 C 47.28125 19.460938 47.949219 19.667969 48.773438 19.789062 C 49.601562 19.90625 50.476562 19.96875 51.398438 19.96875 C 52.441406 19.96875 53.320312 19.914062 54.042969 19.800781 C 54.773438 19.679688 55.382812 19.507812 55.875 19.273438 C 56.378906 19.042969 56.8125 18.742188 57.175781 18.375 C 57.546875 18.007812 57.894531 17.570312 58.21875 17.054688 C 58.363281 16.800781 58.566406 16.691406 58.824219 16.722656 C 59.09375 16.746094 59.246094 16.914062 59.289062 17.222656 C 59.328125 17.488281 59.363281 17.839844 59.394531 18.277344 C 59.4375 18.71875 59.476562 19.1875 59.519531 19.679688 C 59.558594 20.175781 59.589844 20.644531 59.613281 21.082031 C 59.640625 21.519531 59.65625 21.878906 59.675781 22.148438 C 59.699219 22.453125 59.53125 22.613281 59.164062 22.625 C 58.695312 22.648438 58.078125 22.667969 57.320312 22.6875 C 56.566406 22.703125 55.757812 22.710938 54.894531 22.710938 C 54.035156 22.714844 53.207031 22.722656 52.40625 22.722656 C 51.609375 22.722656 50.9375 22.722656 50.378906 22.722656 Z M 50.378906 22.722656 " fill-opacity="1" fill-rule="nonzero"/><path fill="#ffffff" d="M 71.5625 22.804688 C 70.9375 22.804688 70.242188 22.769531 69.472656 22.699219 C 68.703125 22.632812 67.914062 22.542969 67.105469 22.421875 C 66.304688 22.304688 65.53125 22.175781 64.789062 22.039062 C 64.042969 21.894531 63.371094 21.746094 62.773438 21.585938 C 62.644531 21.546875 62.535156 21.460938 62.445312 21.332031 C 62.363281 21.207031 62.324219 21.0625 62.324219 20.902344 C 62.324219 20.367188 62.328125 19.835938 62.335938 19.308594 C 62.34375 18.78125 62.355469 18.25 62.371094 17.714844 C 62.378906 17.4375 62.496094 17.246094 62.726562 17.140625 C 62.957031 17.03125 63.164062 17.070312 63.34375 17.261719 C 64.34375 18.179688 65.554688 18.851562 66.960938 19.273438 C 68.375 19.699219 69.886719 19.90625 71.488281 19.90625 C 72.742188 19.90625 73.742188 19.785156 74.488281 19.535156 C 75.230469 19.289062 75.605469 18.910156 75.605469 18.398438 C 75.605469 18.0625 75.421875 17.796875 75.058594 17.59375 C 74.699219 17.390625 74.21875 17.222656 73.613281 17.09375 C 73.007812 16.964844 72.328125 16.851562 71.574219 16.757812 C 70.820312 16.65625 70.039062 16.542969 69.230469 16.421875 C 68.421875 16.300781 67.640625 16.152344 66.886719 15.964844 C 66.136719 15.773438 65.457031 15.53125 64.847656 15.234375 C 64.242188 14.933594 63.757812 14.550781 63.394531 14.085938 C 63.035156 13.617188 62.859375 13.03125 62.859375 12.335938 C 62.859375 11.628906 63.066406 11.027344 63.488281 10.527344 C 63.910156 10.035156 64.492188 9.628906 65.238281 9.320312 C 65.988281 9.007812 66.867188 8.785156 67.871094 8.648438 C 68.875 8.503906 69.949219 8.433594 71.101562 8.433594 C 71.828125 8.433594 72.59375 8.472656 73.394531 8.550781 C 74.203125 8.632812 74.996094 8.753906 75.773438 8.910156 C 76.550781 9.074219 77.257812 9.265625 77.898438 9.484375 C 78.195312 9.601562 78.347656 9.808594 78.347656 10.109375 L 78.347656 12.730469 C 78.347656 12.996094 78.238281 13.195312 78.019531 13.332031 C 77.800781 13.46875 77.597656 13.457031 77.414062 13.296875 C 76.585938 12.667969 75.632812 12.179688 74.546875 11.835938 C 73.460938 11.484375 72.375 11.308594 71.28125 11.308594 C 70.578125 11.308594 69.902344 11.355469 69.253906 11.449219 C 68.613281 11.546875 68.09375 11.695312 67.691406 11.894531 C 67.28125 12.09375 67.082031 12.359375 67.082031 12.695312 C 67.082031 13.027344 67.265625 13.292969 67.628906 13.5 C 67.992188 13.699219 68.480469 13.859375 69.085938 13.976562 C 69.691406 14.097656 70.375 14.207031 71.136719 14.300781 C 71.90625 14.390625 72.695312 14.492188 73.515625 14.613281 C 74.339844 14.726562 75.132812 14.875 75.894531 15.054688 C 76.664062 15.234375 77.351562 15.46875 77.957031 15.761719 C 78.566406 16.050781 79.050781 16.425781 79.414062 16.890625 C 79.78125 17.351562 79.960938 17.925781 79.960938 18.601562 C 79.960938 19.9375 79.222656 20.96875 77.753906 21.703125 C 76.277344 22.441406 74.214844 22.804688 71.5625 22.804688 Z M 71.5625 22.804688 " fill-opacity="1" fill-rule="nonzero"/><path fill="#ffffff" d="M 91.769531 22.804688 C 91.144531 22.804688 90.449219 22.769531 89.683594 22.699219 C 88.910156 22.632812 88.121094 22.542969 87.316406 22.421875 C 86.515625 22.304688 85.742188 22.175781 84.996094 22.039062 C 84.25 21.894531 83.578125 21.746094 82.980469 21.585938 C 82.851562 21.546875 82.742188 21.460938 82.65625 21.332031 C 82.574219 21.207031 82.53125 21.0625 82.53125 20.902344 C 82.53125 20.367188 82.535156 19.835938 82.546875 19.308594 C 82.550781 18.78125 82.5625 18.25 82.582031 17.714844 C 82.585938 17.4375 82.707031 17.246094 82.933594 17.140625 C 83.167969 17.03125 83.375 17.070312 83.554688 17.261719 C 84.554688 18.179688 85.761719 18.851562 87.171875 19.273438 C 88.585938 19.699219 90.09375 19.90625 91.699219 19.90625 C 92.949219 19.90625 93.949219 19.785156 94.695312 19.535156 C 95.4375 19.289062 95.8125 18.910156 95.8125 18.398438 C 95.8125 18.0625 95.628906 17.796875 95.265625 17.59375 C 94.910156 17.390625 94.429688 17.222656 93.820312 17.09375 C 93.214844 16.964844 92.535156 16.851562 91.78125 16.757812 C 91.03125 16.65625 90.246094 16.542969 89.441406 16.421875 C 88.628906 16.300781 87.851562 16.152344 87.097656 15.964844 C 86.34375 15.773438 85.664062 15.53125 85.058594 15.234375 C 84.449219 14.933594 83.964844 14.550781 83.601562 14.085938 C 83.242188 13.617188 83.066406 13.03125 83.066406 12.335938 C 83.066406 11.628906 83.277344 11.027344 83.699219 10.527344 C 84.117188 10.035156 84.699219 9.628906 85.445312 9.320312 C 86.199219 9.007812 87.074219 8.785156 88.082031 8.648438 C 89.082031 8.503906 90.160156 8.433594 91.308594 8.433594 C 92.039062 8.433594 92.800781 8.472656 93.601562 8.550781 C 94.410156 8.632812 95.207031 8.753906 95.984375 8.910156 C 96.757812 9.074219 97.464844 9.265625 98.105469 9.484375 C 98.402344 9.601562 98.554688 9.808594 98.554688 10.109375 L 98.554688 12.730469 C 98.554688 12.996094 98.445312 13.195312 98.226562 13.332031 C 98.007812 13.46875 97.804688 13.457031 97.621094 13.296875 C 96.796875 12.667969 95.839844 12.179688 94.757812 11.835938 C 93.671875 11.484375 92.582031 11.308594 91.492188 11.308594 C 90.789062 11.308594 90.109375 11.355469 89.464844 11.449219 C 88.824219 11.546875 88.300781 11.695312 87.898438 11.894531 C 87.492188 12.09375 87.292969 12.359375 87.292969 12.695312 C 87.292969 13.027344 87.472656 13.292969 87.835938 13.5 C 88.203125 13.699219 88.6875 13.859375 89.292969 13.976562 C 89.902344 14.097656 90.582031 14.207031 91.34375 14.300781 C 92.113281 14.390625 92.90625 14.492188 93.726562 14.613281 C 94.550781 14.726562 95.34375 14.875 96.105469 15.054688 C 96.871094 15.234375 97.558594 15.46875 98.167969 15.761719 C 98.773438 16.050781 99.261719 16.425781 99.625 16.890625 C 99.988281 17.351562 100.171875 17.925781 100.171875 18.601562 C 100.171875 19.9375 99.433594 20.96875 97.960938 21.703125 C 96.484375 22.441406 94.421875 22.804688 91.769531 22.804688 Z M 91.769531 22.804688 " fill-opacity="1" fill-rule="nonzero"/><path fill="#ffffff" d="M 24.992188 21.539062 C 24.8125 21.539062 24.617188 21.53125 24.398438 21.515625 C 24.179688 21.503906 23.9375 21.484375 23.667969 21.453125 C 23.5 21.429688 23.367188 21.371094 23.269531 21.273438 C 23.171875 21.179688 23.121094 21.054688 23.121094 20.902344 C 23.121094 20.351562 23.257812 19.785156 23.523438 19.191406 C 23.789062 18.601562 24.15625 18.035156 24.617188 17.488281 C 25.078125 16.949219 25.597656 16.472656 26.183594 16.066406 C 26.769531 15.65625 27.382812 15.371094 28.015625 15.203125 C 28.167969 15.152344 28.246094 15.070312 28.246094 14.949219 C 28.25 14.832031 28.179688 14.746094 28.027344 14.699219 C 27.433594 14.515625 26.878906 14.25 26.363281 13.894531 C 25.84375 13.546875 25.394531 13.148438 25.003906 12.699219 C 24.617188 12.253906 24.304688 11.789062 24.070312 11.308594 C 23.84375 10.824219 23.730469 10.367188 23.730469 9.945312 C 23.730469 9.632812 23.90625 9.449219 24.265625 9.394531 C 24.53125 9.34375 24.777344 9.320312 25.003906 9.320312 C 25.230469 9.316406 25.429688 9.308594 25.597656 9.308594 C 25.773438 9.308594 25.992188 9.316406 26.253906 9.320312 C 26.523438 9.328125 26.777344 9.355469 27.019531 9.394531 C 27.277344 9.425781 27.433594 9.558594 27.492188 9.789062 C 27.6875 10.507812 27.953125 11.171875 28.292969 11.777344 C 28.632812 12.382812 29.011719 12.867188 29.433594 13.226562 C 29.863281 13.585938 30.289062 13.765625 30.710938 13.765625 C 31.136719 13.765625 31.570312 13.578125 32.007812 13.203125 C 32.445312 12.820312 32.832031 12.328125 33.171875 11.726562 C 33.519531 11.125 33.769531 10.476562 33.914062 9.789062 C 33.953125 9.558594 34.109375 9.425781 34.375 9.394531 C 34.625 9.34375 34.886719 9.320312 35.152344 9.320312 C 35.425781 9.316406 35.644531 9.308594 35.808594 9.308594 C 35.976562 9.308594 36.179688 9.316406 36.414062 9.320312 C 36.65625 9.328125 36.90625 9.355469 37.167969 9.394531 C 37.320312 9.402344 37.445312 9.457031 37.542969 9.558594 C 37.640625 9.664062 37.6875 9.792969 37.6875 9.945312 C 37.679688 10.375 37.558594 10.835938 37.324219 11.320312 C 37.089844 11.800781 36.769531 12.265625 36.367188 12.722656 C 35.96875 13.171875 35.511719 13.574219 34.996094 13.933594 C 34.484375 14.292969 33.949219 14.574219 33.390625 14.769531 C 33.253906 14.8125 33.1875 14.886719 33.1875 15 C 33.1875 15.113281 33.253906 15.195312 33.390625 15.25 C 34.03125 15.488281 34.640625 15.820312 35.226562 16.230469 C 35.808594 16.648438 36.328125 17.117188 36.789062 17.632812 C 37.253906 18.144531 37.621094 18.683594 37.894531 19.25 C 38.167969 19.8125 38.308594 20.363281 38.308594 20.902344 C 38.308594 21.054688 38.253906 21.179688 38.148438 21.273438 C 38.042969 21.371094 37.914062 21.429688 37.761719 21.453125 C 37.5 21.484375 37.253906 21.503906 37.023438 21.515625 C 36.792969 21.53125 36.601562 21.539062 36.4375 21.539062 C 36.1875 21.539062 35.933594 21.53125 35.6875 21.527344 C 35.433594 21.527344 35.183594 21.503906 34.933594 21.453125 C 34.667969 21.425781 34.496094 21.292969 34.425781 21.058594 C 34.234375 20.476562 34 19.902344 33.707031 19.335938 C 33.417969 18.757812 33.09375 18.242188 32.75 17.777344 C 32.410156 17.308594 32.058594 16.933594 31.703125 16.652344 C 31.347656 16.371094 31.015625 16.230469 30.710938 16.230469 C 30.375 16.230469 30.023438 16.375 29.652344 16.664062 C 29.28125 16.949219 28.917969 17.332031 28.5625 17.800781 C 28.203125 18.273438 27.882812 18.792969 27.601562 19.359375 C 27.324219 19.917969 27.121094 20.476562 26.984375 21.035156 C 26.933594 21.285156 26.769531 21.425781 26.496094 21.453125 C 26.238281 21.503906 25.980469 21.527344 25.734375 21.527344 C 25.480469 21.53125 25.234375 21.539062 24.992188 21.539062 Z M 24.992188 21.539062 " fill-opacity="1" fill-rule="nonzero"/><g clip-path="url(#baffc7abbf)"><g clip-path="url(#1ab02e644b)"><path fill="#c49cff" d="M 27.996094 4.699219 L 33.441406 4.699219 L 33.441406 9.738281 L 27.996094 9.738281 Z M 27.996094 4.699219 " fill-opacity="1" fill-rule="nonzero"/></g></g></svg>